<svg height="65" viewBox="0 0 73 65" width="73" xmlns="http://www.w3.org/2000/svg"><g fill="none" fill-rule="evenodd"><path d="m36.396 5.065c-.249 0-.71.075-1 .577l-30.167 52.252c-.29.502-.124.938 0 1.154.125.215.42.577 1 .577h60.335c.58 0 .875-.362 1-.577.124-.215.29-.652 0-1.154l-30.167-52.252a1.119 1.119 0 0 0 -1-.577zm30.168 59.625h-60.334a6.154 6.154 0 0 1 -5.387-3.11 6.154 6.154 0 0 1 0-6.22l30.169-52.25a6.156 6.156 0 0 1 5.384-3.11h.001a6.156 6.156 0 0 1 5.386 3.11l30.167 52.25a6.154 6.154 0 0 1 0 6.22 6.155 6.155 0 0 1 -5.386 3.11z" fill="#fff"/><path d="m36.607 56.022h25.724l-38.584-22.278-12.862 22.278z" fill="#d9eaf2" opacity=".8"/><path d="m36.882 37.047c-.375-.026-1.119-.256-1.968-.756-2.41-1.423-2.769-3.657-1.596-5.644 1.404-2.38 3.884-2.704 5.995-1.458.818.482 1.341 1.015 1.536 1.324l-1.06 1.063a3.954 3.954 0 0 0 -1.172-1.04c-1.253-.74-2.671-.557-3.587.995-.825 1.398-.516 2.766.892 3.597.476.28 1.065.488 1.449.547l-.49 1.372zm4.001-2.048c-.806 1.365-.731 2.707.324 3.33 1.066.629 2.276-.025 3.076-1.38.739-1.254.772-2.684-.314-3.326-1.065-.628-2.286.02-3.086 1.376m5.096 2.88c-1.35 2.288-3.555 2.857-5.594 1.654-2.07-1.222-2.359-3.5-1.186-5.487 1.234-2.09 3.491-2.865 5.55-1.65 2.143 1.264 2.366 3.558 1.23 5.484m-1.999 4.779.328-.556.778-.16c1.308-.26 1.984-.455 2.267-.907.19-.32.145-.687-.307-.954-.339-.199-.734-.206-1.031-.168l.128-.812c.427-.049.993.04 1.524.354.887.523 1.07 1.33.65 2.043-.388.657-1.175.901-2.04 1.074l-.54.088-.008.012 1.478.872-.445.755z" fill="#fff"/></g></svg>
