<svg height="141" viewBox="0 0 234 141" width="234" xmlns="http://www.w3.org/2000/svg" xmlns:xlink="http://www.w3.org/1999/xlink"><linearGradient id="a" x1="50%" x2="50%" y1="89.302%" y2="12.833%"><stop offset="0" stop-color="#54b982"/><stop offset=".31778" stop-color="#abc44b"/><stop offset=".51489" stop-color="#fae84d"/><stop offset=".71225" stop-color="#f2ad49"/><stop offset="1" stop-color="#eb664f"/></linearGradient><g fill="none" fill-rule="evenodd"><path d="m90.106 44.057c-2.07 0-3.994-.37-5.771-1.112a13.124 13.124 0 0 1 -4.636-3.245c-1.313-1.421-2.348-3.175-3.105-5.261-.758-2.086-1.136-4.473-1.136-7.162 0-2.688.41-5.075 1.228-7.161.82-2.086 1.909-3.84 3.268-5.261a13.488 13.488 0 0 1 4.728-3.222 14.798 14.798 0 0 1 5.61-1.09c1.204 0 2.301.078 3.29.233.99.154 1.854.347 2.596.579s1.375.463 1.9.695c.526.232.928.44 1.206.626l-1.02 2.735c-.773-.464-1.754-.92-2.944-1.368s-2.665-.672-4.426-.672c-2.009 0-3.763.34-5.261 1.02a10.387 10.387 0 0 0 -3.778 2.874c-1.02 1.236-1.785 2.704-2.295 4.404s-.765 3.584-.765 5.655c0 2.132.255 4.056.765 5.77.51 1.716 1.26 3.176 2.248 4.381a9.926 9.926 0 0 0 3.64 2.781c1.436.65 3.082.974 4.936.974 2.04 0 3.747-.193 5.122-.58 1.375-.386 2.418-.78 3.129-1.182l.88 2.689c-.216.154-.587.332-1.112.533-.525.2-1.19.41-1.993.626a21.78 21.78 0 0 1 -2.781.533c-1.051.139-2.225.208-3.523.208zm20.806-.278c-1.02-.03-1.908-.162-2.665-.394-.757-.231-1.39-.587-1.9-1.066s-.897-1.097-1.16-1.854c-.262-.757-.394-1.707-.394-2.85v-29.668l3.013-.556v30.13c0 .741.07 1.336.209 1.784s.348.804.626 1.066c.278.263.641.456 1.09.58.447.123.98.231 1.598.324l-.417 2.503zm8.8-.417h-3.012v-23.965h3.013v23.965zm.696-31.196c0 .71-.216 1.275-.649 1.692a2.187 2.187 0 0 1 -1.576.626 2.187 2.187 0 0 1 -1.576-.626c-.432-.417-.649-.981-.649-1.692 0-.71.217-1.275.65-1.692a2.187 2.187 0 0 1 1.575-.626c.618 0 1.144.209 1.576.626.433.417.65.981.65 1.692zm7.318 8.066a65.253 65.253 0 0 1 3.5-.835c1.436-.309 3.298-.463 5.585-.463 3.028 0 5.223.88 6.582 2.642.155-.124.456-.332.904-.626a12.762 12.762 0 0 1 1.692-.904c.68-.309 1.476-.571 2.387-.788.912-.216 1.924-.324 3.036-.324 1.824 0 3.3.27 4.427.811 1.128.54 2.001 1.298 2.62 2.271.617.974 1.034 2.14 1.25 3.5.217 1.36.325 2.843.325 4.45v13.396h-3.013v-12.422c0-1.576-.07-2.943-.208-4.102-.14-1.159-.418-2.117-.835-2.874a4.072 4.072 0 0 0 -1.784-1.715c-.773-.386-1.777-.58-3.013-.58-.927 0-1.77.086-2.527.256a10.58 10.58 0 0 0 -1.97.625 8.38 8.38 0 0 0 -1.367.742c-.355.247-.61.433-.765.556.278.804.487 1.708.626 2.712s.208 2.063.208 3.175v13.628h-3.013v-12.423c0-1.576-.07-2.943-.208-4.102-.14-1.159-.425-2.117-.858-2.874a4.181 4.181 0 0 0 -1.83-1.715c-.789-.386-1.832-.58-3.13-.58-1.452 0-2.68.078-3.685.232-1.004.155-1.645.294-1.923.418v21.044h-3.013v-23.13zm47.599 20.951c1.174 0 2.201-.038 3.082-.115.88-.078 1.63-.178 2.248-.302v-8.436c-.34-.155-.88-.317-1.622-.487s-1.762-.255-3.06-.255c-.741 0-1.514.054-2.317.163a6.689 6.689 0 0 0 -2.225.695 4.614 4.614 0 0 0 -1.669 1.46c-.433.618-.649 1.437-.649 2.457 0 .896.147 1.653.44 2.271.294.618.711 1.113 1.252 1.483.54.371 1.19.642 1.947.812s1.615.254 2.573.254zm-.279-22.342c1.576 0 2.913.224 4.01.672s1.985 1.066 2.665 1.854 1.175 1.723 1.484 2.805c.309 1.081.463 2.256.463 3.523v15.11c-.309.094-.757.194-1.344.302s-1.267.224-2.04.348c-.772.123-1.63.224-2.572.301a35.46 35.46 0 0 1 -2.897.116c-1.267 0-2.434-.14-3.5-.417-1.066-.278-1.993-.719-2.781-1.321a6.235 6.235 0 0 1 -1.854-2.318c-.449-.942-.673-2.094-.673-3.453 0-1.298.248-2.41.742-3.338a6.314 6.314 0 0 1 2.086-2.294c.896-.603 1.962-1.043 3.198-1.321 1.237-.278 2.58-.418 4.033-.418.433 0 .889.024 1.368.07a18.9 18.9 0 0 1 1.39.185c.448.078.835.155 1.16.232.324.077.548.147.671.209v-1.484c0-.834-.062-1.645-.185-2.433a5.329 5.329 0 0 0 -.811-2.132c-.418-.634-1.005-1.144-1.762-1.53s-1.754-.58-2.99-.58c-1.761 0-3.074.124-3.94.371-.865.248-1.498.448-1.9.603l-.417-2.642c.525-.247 1.336-.48 2.433-.695 1.097-.217 2.418-.325 3.963-.325zm19.184.556h9.55v2.55h-9.55v12.747c0 1.36.116 2.464.348 3.314s.564 1.507.997 1.97a3.16 3.16 0 0 0 1.576.927 8.405 8.405 0 0 0 2.04.232c1.266 0 2.286-.147 3.059-.44.772-.294 1.375-.564 1.807-.811l.742 2.503c-.433.278-1.19.595-2.271.95-1.082.355-2.256.533-3.523.533-1.483 0-2.727-.193-3.732-.58-1.004-.386-1.807-.973-2.41-1.76-.603-.789-1.028-1.77-1.275-2.944-.247-1.175-.37-2.565-.37-4.172v-22.064l3.012-.557zm13.715 11.96c0-2.102.301-3.933.904-5.493.602-1.561 1.39-2.867 2.364-3.917.973-1.05 2.086-1.831 3.337-2.341a10.168 10.168 0 0 1 3.87-.765c2.936 0 5.277.958 7.023 2.874s2.62 4.867 2.62 8.854c0 .247-.009.494-.024.741a8.817 8.817 0 0 1 -.07.695h-16.826c.093 2.936.819 5.192 2.179 6.768s3.523 2.364 6.49 2.364c1.637 0 2.935-.154 3.893-.463.958-.31 1.653-.572 2.086-.788l.556 2.595c-.433.248-1.244.541-2.433.881-1.19.34-2.589.51-4.195.51-2.102 0-3.894-.309-5.377-.927-1.484-.618-2.704-1.483-3.662-2.596-.958-1.112-1.654-2.433-2.086-3.963-.433-1.53-.65-3.206-.65-5.03zm17.012-1.901c-.062-2.503-.65-4.45-1.762-5.84-1.112-1.391-2.688-2.086-4.728-2.086-1.082 0-2.047.216-2.897.649a7.358 7.358 0 0 0 -2.225 1.738 8.074 8.074 0 0 0 -1.483 2.526 10.363 10.363 0 0 0 -.626 3.013h13.72zm-127.203 54.512c-.433-1.267-.88-2.519-1.344-3.755a108.928 108.928 0 0 1 -1.345-3.8h-13.535a183.471 183.471 0 0 1 -1.32 3.823 555.128 555.128 0 0 0 -1.322 3.732h-6.072a546.956 546.956 0 0 1 3.43-9.503 384.437 384.437 0 0 1 3.175-8.25 266.621 266.621 0 0 1 3.083-7.417c1.02-2.349 2.07-4.666 3.152-6.953h5.516a237.476 237.476 0 0 1 3.152 6.953c1.02 2.348 2.047 4.82 3.082 7.416a482.468 482.468 0 0 1 3.199 8.251 437.408 437.408 0 0 1 3.453 9.503zm-9.456-25.912a168.463 168.463 0 0 0 -2.434 5.98 326.554 326.554 0 0 0 -2.85 7.648h10.568a312.661 312.661 0 0 0 -2.874-7.695c-.927-2.379-1.73-4.357-2.41-5.933zm16.98 13.814c0-1.793.278-3.47.835-5.03.556-1.56 1.352-2.912 2.387-4.056 1.035-1.143 2.294-2.04 3.778-2.688 1.483-.65 3.152-.974 5.006-.974 2.287 0 4.45.418 6.49 1.252l-1.206 4.589a12.733 12.733 0 0 0 -2.202-.695 11.838 11.838 0 0 0 -2.619-.279c-2.194 0-3.862.688-5.006 2.063-1.143 1.375-1.715 3.314-1.715 5.818 0 2.41.54 4.318 1.623 5.724 1.081 1.406 2.904 2.11 5.47 2.11.957 0 1.9-.093 2.827-.279.927-.185 1.73-.417 2.41-.695l.788 4.635c-.618.31-1.553.587-2.804.835-1.252.247-2.542.37-3.87.37-2.071 0-3.871-.316-5.4-.95-1.53-.633-2.798-1.514-3.802-2.642s-1.754-2.472-2.248-4.033c-.494-1.56-.742-3.252-.742-5.075zm23.005-18.542 5.61-.927v7.324h8.62v4.682h-8.62v9.873c0 1.947.308 3.337.926 4.172.618.834 1.669 1.251 3.152 1.251 1.02 0 1.924-.108 2.712-.324a18.32 18.32 0 0 0 1.877-.603l.927 4.45c-.649.278-1.498.564-2.55.858-1.05.293-2.286.44-3.707.44-1.731 0-3.176-.232-4.335-.695-1.158-.464-2.078-1.136-2.758-2.017-.68-.88-1.158-1.946-1.437-3.198-.278-1.252-.417-2.68-.417-4.288zm25.37 30.64h-5.61v-24.243h5.61zm.602-31.335c0 1.05-.34 1.885-1.02 2.503a3.465 3.465 0 0 1 -2.41.927c-.958 0-1.777-.309-2.457-.927s-1.02-1.452-1.02-2.503c0-1.082.34-1.932 1.02-2.55s1.499-.927 2.457-.927c.927 0 1.73.31 2.41.927.68.618 1.02 1.468 1.02 2.55zm28.521 19.19c0 1.916-.278 3.662-.834 5.238-.557 1.576-1.345 2.92-2.364 4.033a10.629 10.629 0 0 1 -3.685 2.596c-1.437.618-3.021.927-4.752.927-1.73 0-3.306-.31-4.728-.927a10.683 10.683 0 0 1 -3.662-2.596c-1.02-1.113-1.815-2.457-2.387-4.033s-.857-3.322-.857-5.238.285-3.654.857-5.215c.572-1.56 1.375-2.897 2.41-4.01a10.653 10.653 0 0 1 3.686-2.572c1.421-.602 2.982-.904 4.681-.904 1.7 0 3.268.302 4.705.904a10.372 10.372 0 0 1 3.685 2.573c1.02 1.112 1.816 2.449 2.388 4.01.571 1.56.857 3.298.857 5.214zm-5.748 0c0-2.41-.517-4.318-1.553-5.724-1.035-1.407-2.48-2.11-4.334-2.11s-3.298.703-4.334 2.11c-1.035 1.406-1.553 3.314-1.553 5.724 0 2.442.518 4.373 1.553 5.794 1.036 1.422 2.48 2.133 4.334 2.133s3.3-.711 4.334-2.133c1.036-1.421 1.553-3.352 1.553-5.794zm11.602-11.31c1.082-.31 2.488-.603 4.218-.88 1.731-.279 3.647-.418 5.748-.418 1.978 0 3.631.27 4.96.811s2.387 1.298 3.175 2.272c.788.973 1.345 2.147 1.67 3.522.324 1.376.486 2.882.486 4.52v13.628h-5.609v-12.748c0-1.298-.085-2.403-.255-3.315-.17-.911-.448-1.653-.834-2.225a3.331 3.331 0 0 0 -1.576-1.251c-.665-.263-1.476-.394-2.434-.394-.71 0-1.452.046-2.225.139-.772.093-1.344.17-1.715.232v19.56h-5.609v-23.452zm-88.512 31.926v6.165h-9.688v25.958h-7.23v-25.958h-9.688v-6.165h26.607zm12.536 13.86a51.51 51.51 0 0 0 -2.179-.487c-.834-.17-1.73-.255-2.688-.255-.433 0-.95.038-1.553.116-.603.077-1.059.162-1.368.255v18.634h-6.906v-23.084c1.236-.433 2.696-.842 4.38-1.229 1.684-.386 3.562-.58 5.632-.58.37 0 .819.024 1.344.07a27.356 27.356 0 0 1 3.152.464c.526.108.974.24 1.345.394l-1.16 5.701zm13.318 13.442c.68 0 1.329-.015 1.947-.046s1.112-.078 1.483-.14v-5.237a12.751 12.751 0 0 0 -1.251-.186 13.689 13.689 0 0 0 -3.36.023 4.783 4.783 0 0 0 -1.508.44c-.432.217-.772.51-1.02.882-.247.37-.37.834-.37 1.39 0 1.082.363 1.831 1.09 2.248.725.417 1.722.626 2.989.626zm-.556-20.21c2.04 0 3.739.232 5.099.695 1.36.464 2.449 1.128 3.267 1.993.82.866 1.399 1.916 1.739 3.152.34 1.237.51 2.612.51 4.126v14.37c-.99.216-2.364.47-4.126.764-1.761.294-3.894.44-6.397.44-1.576 0-3.005-.138-4.287-.416-1.283-.279-2.388-.734-3.315-1.368a6.257 6.257 0 0 1 -2.132-2.48c-.494-1.02-.742-2.271-.742-3.754 0-1.422.286-2.627.858-3.616a6.6 6.6 0 0 1 2.294-2.364c.958-.587 2.056-1.012 3.292-1.275a18.462 18.462 0 0 1 3.847-.394c.896 0 1.692.039 2.387.116s1.26.178 1.692.301v-.649c0-1.174-.355-2.116-1.066-2.827-.71-.71-1.947-1.066-3.708-1.066-1.175 0-2.333.085-3.477.255-1.143.17-2.132.41-2.967.718l-.88-5.562a22.33 22.33 0 0 1 1.506-.394c.603-.14 1.26-.263 1.97-.371.711-.108 1.46-.201 2.248-.278a24.452 24.452 0 0 1 2.388-.116zm15.774 12.84c0-1.762.285-3.423.857-4.983s1.398-2.92 2.48-4.08c1.082-1.158 2.395-2.077 3.94-2.757s3.307-1.02 5.284-1.02c1.298 0 2.488.116 3.57.348 1.081.231 2.132.563 3.152.996l-1.437 5.516a17.407 17.407 0 0 0 -2.133-.649c-.772-.185-1.637-.278-2.595-.278-2.04 0-3.562.634-4.566 1.9-1.005 1.268-1.507 2.936-1.507 5.007 0 2.194.472 3.894 1.414 5.099.943 1.205 2.588 1.808 4.937 1.808.834 0 1.73-.078 2.688-.232a11.43 11.43 0 0 0 2.642-.742l.974 5.655c-.804.34-1.808.634-3.013.88-1.205.248-2.534.372-3.987.372-2.225 0-4.14-.332-5.747-.997-1.607-.664-2.928-1.568-3.964-2.712-1.035-1.143-1.792-2.495-2.271-4.055-.479-1.561-.718-3.253-.718-5.076zm31.302-3.384c.68-.742 1.383-1.514 2.109-2.318a138 138 0 0 0 2.109-2.387c.68-.788 1.321-1.537 1.924-2.248.602-.71 1.12-1.329 1.553-1.854h8.204a315.397 315.397 0 0 1 -4.797 5.4 133.128 133.128 0 0 1 -5.123 5.308c.928.834 1.886 1.83 2.874 2.99a73.107 73.107 0 0 1 2.874 3.592 53.029 53.029 0 0 1 2.55 3.708 47.592 47.592 0 0 1 1.947 3.384h-7.927a125.903 125.903 0 0 0 -1.692-2.666 66.038 66.038 0 0 0 -2.016-2.92 39.672 39.672 0 0 0 -2.248-2.804c-.788-.896-1.569-1.653-2.341-2.272v10.662h-6.907v-34.858l6.907-1.113zm15.5 3.57c0-2.164.331-4.057.996-5.68.664-1.621 1.537-2.973 2.619-4.055a10.895 10.895 0 0 1 3.731-2.457 11.683 11.683 0 0 1 4.334-.834c3.461 0 6.196 1.058 8.205 3.175 2.008 2.117 3.013 5.23 3.013 9.34 0 .402-.016.842-.047 1.321-.03.48-.061.904-.092 1.275h-15.668c.155 1.422.82 2.55 1.993 3.384 1.175.834 2.75 1.252 4.728 1.252 1.267 0 2.511-.116 3.732-.348 1.22-.232 2.217-.518 2.99-.858l.927 5.61c-.371.185-.865.37-1.484.555-.618.186-1.305.348-2.062.487-.757.14-1.569.255-2.434.348-.865.092-1.73.139-2.596.139-2.194 0-4.102-.325-5.724-.974-1.623-.649-2.967-1.537-4.033-2.665s-1.854-2.464-2.364-4.01c-.51-1.545-.765-3.213-.765-5.006zm16.223-2.643a7.13 7.13 0 0 0 -.301-1.715 4.282 4.282 0 0 0 -.788-1.483 4.195 4.195 0 0 0 -1.345-1.066c-.54-.279-1.213-.418-2.016-.418-.773 0-1.437.132-1.993.394-.557.263-1.02.61-1.39 1.043-.372.433-.658.935-.858 1.507a9.886 9.886 0 0 0 -.44 1.738h9.13zm26.76-3.616a51.51 51.51 0 0 0 -2.18-.486c-.833-.17-1.73-.255-2.688-.255-.432 0-.95.038-1.552.116-.603.077-1.059.162-1.368.255v18.634h-6.907v-23.084c1.237-.433 2.697-.842 4.38-1.229 1.685-.386 3.562-.58 5.633-.58.37 0 .819.024 1.344.07a27.356 27.356 0 0 1 3.152.464c.525.108.974.24 1.344.394z" fill="#28a2ce"/><path d="m29.344 10.369c-6.867 0-12.45 5.579-12.45 12.436v64.488l-.81.495c-7.955 4.885-12.712 13.34-12.712 22.635 0 14.642 11.904 26.552 26.558 26.552 14.628 0 26.536-11.91 26.536-26.552 0-9.81-5.184-18.74-13.522-23.311l-.876-.47v-63.837c0-6.745-5.83-12.436-12.724-12.436m.586 129.962c-16.5-.001-29.93-13.412-29.93-29.908 0-10.158 5.05-19.44 13.53-24.996v-62.622c0-8.711 7.089-15.805 15.815-15.805 4.217 0 8.228 1.64 11.297 4.618 3.087 3.002 4.794 6.979 4.794 11.186v61.858a29.299 29.299 0 0 1 10.254 10.298c2.71 4.62 4.148 9.969 4.148 15.463 0 16.496-13.43 29.908-29.908 29.908" fill="#5f605e"/><path d="m19.919 22.804v66.392c-7.966 3.771-13.525 11.819-13.525 21.226 0 12.994 10.542 23.53 23.536 23.53 12.98 0 23.517-10.536 23.517-23.53 0-9.864-6.086-18.281-14.71-21.783v-65.835c0-5.201-4.21-9.412-9.393-9.412-5.202 0-9.425 4.211-9.425 9.412" fill="url(#a)"/></g></svg>
