<?xml version="1.0" standalone="no"?>
<!DOCTYPE svg PUBLIC "-//W3C//DTD SVG 20010904//EN"
 "http://www.w3.org/TR/2001/REC-SVG-20010904/DTD/svg10.dtd">
<svg version="1.0" xmlns="http://www.w3.org/2000/svg"
 width="588.000000pt" height="588.000000pt" viewBox="0 0 588.000000 588.000000"
 preserveAspectRatio="xMidYMid meet">
<metadata>
Created by potrace 1.11, written by Peter Selinger 2001-2013
</metadata>
<g transform="translate(0.000000,588.000000) scale(0.100000,-0.100000)"
fill="#000000" stroke="none">
<path d="M2825 5723 c-288 -53 -505 -266 -553 -540 -5 -30 -10 -624 -10 -1365
0 -722 -1 -1324 -2 -1338 0 -19 -14 -34 -53 -60 -28 -19 -92 -76 -142 -125
-164 -165 -269 -347 -325 -566 -30 -114 -35 -163 -35 -314 0 -177 11 -251 57
-390 108 -324 341 -589 653 -739 168 -81 342 -119 543 -117 129 1 172 6 294
36 412 103 743 413 881 825 14 41 29 93 33 115 4 22 9 47 10 55 22 107 21 310
-1 437 -57 334 -248 631 -523 816 l-57 39 -1 1321 c0 727 -4 1342 -8 1366 -4
24 -18 73 -30 107 -96 264 -353 443 -633 441 -43 0 -87 -2 -98 -4z m242 -158
c92 -30 158 -70 228 -140 75 -74 122 -155 144 -249 9 -37 12 -397 12 -1408 l0
-1359 46 -27 c347 -203 551 -561 551 -967 1 -403 -216 -771 -572 -970 -68 -38
-199 -89 -269 -104 -23 -6 -55 -13 -72 -17 -65 -14 -299 -13 -380 2 -281 54
-528 209 -700 439 -50 67 -135 233 -160 310 -53 172 -66 395 -31 560 59 280
225 529 458 689 l83 57 1 1387 c1 1387 1 1387 22 1453 61 186 231 334 412 356
25 3 46 7 48 8 9 8 138 -7 179 -20z"/>
<path d="M2849 5455 c-157 -31 -291 -167 -314 -315 -4 -25 -7 -674 -7 -1442
l-1 -1397 -31 -16 c-99 -52 -158 -96 -241 -179 -45 -45 -95 -102 -112 -127
-59 -86 -126 -230 -148 -319 -10 -41 -26 -160 -29 -210 -20 -422 259 -827 663
-965 103 -35 171 -46 291 -50 490 -14 915 336 994 820 70 430 -146 847 -539
1043 l-60 30 0 1408 c-1 1358 -1 1411 -20 1459 -60 160 -193 257 -366 269 -15
1 -51 -3 -80 -9z"/>
</g>
</svg>
